<!DOCTYPE svg PUBLIC "-//W3C//DTD SVG 1.1//EN" "http://www.w3.org/Graphics/SVG/1.1/DTD/svg11.dtd">
<!-- Uploaded to: SVG Repo, www.svgrepo.com, Transformed by: SVG Repo Mixer Tools -->
<svg width="800px" height="800px" viewBox="-6.06 -6.06 72.72 72.72" xmlns:cc="http://creativecommons.org/ns#" xmlns:dc="http://purl.org/dc/elements/1.1/" xmlns:rdf="http://www.w3.org/1999/02/22-rdf-syntax-ns#" xmlns:svg="http://www.w3.org/2000/svg" version="1.1" xmlns="http://www.w3.org/2000/svg" fill="#000000">
<g id="SVGRepo_bgCarrier" stroke-width="0" transform="translate(6.969115460000001,6.969115460000001), scale(0.77)">
<rect x="-6.06" y="-6.06" width="72.72" height="72.72" rx="3.636" fill="#000000" strokewidth="0"/>
</g>
<g id="SVGRepo_tracerCarrier" stroke-linecap="round" stroke-linejoin="round" stroke="#CCCCCC" stroke-width="0.121202008"/>
<g id="SVGRepo_iconCarrier"> <defs/> <metadata> <rdf:rdf> <cc:work rdf:about=""> <dc:format>image/svg+xml</dc:format> <dc:type rdf:resource="http://purl.org/dc/dcmitype/StillImage"/> <dc:title>警察; Police</dc:title> <dc:source>http://www.ecomo.or.jp/barrierfree/pictogram/data/zukigo_panfu_jis110.pdf</dc:source> </cc:work> </rdf:rdf> </metadata> <path d="m 7.7898759,56.02613 c -1.7750001,0 -3.2150003,-1.43875 -3.2150003,-3.215 l 0,-45.0200039 c 0,-1.7762501 1.4400002,-3.2162502 3.2150003,-3.2162502 l 45.0212541,0 c 1.77625,0 3.215,1.4400001 3.215,3.2162502 l 0,45.0200039 c 0,1.77625 -1.43875,3.215 -3.215,3.215 l -45.0212541,0 z" style="fill:#ffffff;stroke:#4472C4;stroke-width:0.60625005;stroke-linecap:butt;stroke-linejoin:miter;stroke-miterlimit:4;stroke-dasharray:none;stroke-opacity:1;fill-opacity:1"/> <path d="m 25.618626,18.467378 0,0.38875 c 0,2.57875 2.09,4.66875 4.66875,4.66875 2.578751,0 4.668751,-2.09 4.668751,-4.66875 l 0,-2.72375 -9.753751,0 -1.95875,2.335 2.375,0" style="fill:#4472C4;fill-opacity:1;fill-rule:nonzero;stroke:none"/> <path d="m 23.184876,10.518627 2.0175,4.3275 9.753751,0 0.92625,-2.5425 -12.697501,-1.785" style="fill:#4472C4;fill-opacity:1;fill-rule:nonzero;stroke:none"/> <path d="m 27.599876,43.048629 0,2.12125 10.220001,0 0.075,-2.12125 -10.295001,0 z m -0.85,-1.5925 c 0,-0.4875 -0.39375,-0.88375 -0.8825,-0.88375 l -3.0075,0 c -0.39,0 -0.70625,0.3175 -0.70625,0.7075 0,0.10375 0.02125,0.20125 0.0625,0.29 l 2.845,6.32375 c 0.13875,0.30625 0.44625,0.52125 0.80625,0.52125 0.48875,0 0.8825,-0.39625 0.8825,-0.885 l 0,-6.07375 z m 15.678751,-9.595001 -1.44375,16.493751 -3.275,0 -0.0625,1.767501 -14.722501,0 -0.06125,-1.767501 -3.277501,0 -1.44125,-16.493751 c -0.24,-2.7375 1.47875,-5.355 4.223751,-6.12625 1.57375,-0.43875 3.2,-0.75 4.87,-0.92125 l 3.04625,5.21625 3.05125,-5.22 c 1.662501,0.17 3.281251,0.47875 4.850001,0.91125 2.7425,0.77125 4.4825,3.4025 4.2425,6.14" style="fill:#4472C4;fill-opacity:1;fill-rule:nonzero;stroke:none"/> </g>
</svg>